<svg xmlns="http://www.w3.org/2000/svg" width="231.728" height="48.828" viewBox="0 0 231.728 48.828">
  <g id="Grupo_379" data-name="Grupo 379" transform="translate(-140 -20)">
    <path id="Trazado_380" data-name="Trazado 380" d="M104.618,43.47c0-4.791,3.057-7.79,7.555-7.79a6.575,6.575,0,0,1,6.232,3.5l-3.028,1.705a3.352,3.352,0,0,0-3.145-1.911c-1.911,0-3.616,1.293-3.616,4.468,0,3.145,1.646,4.351,3.5,4.351,1.323,0,2.5-.618,3.557-2.293l2.91,1.675a7.165,7.165,0,0,1-6.731,3.939c-3.939,0-7.232-2.675-7.232-7.643" transform="translate(92.959 3.957)" fill="#a93636"/>
    <path id="Trazado_381" data-name="Trazado 381" d="M132.54,43.412c.03-4.674,2.852-7.731,7.379-7.731,4.674,0,7.408,3,7.408,7.731,0,4.644-2.793,7.731-7.408,7.731-4.556,0-7.408-3.086-7.379-7.731m10.877,0c0-2.969-1.234-4.439-3.5-4.439-2.2,0-3.469,1.469-3.469,4.439s1.235,4.439,3.469,4.439c2.264,0,3.5-1.469,3.5-4.439" transform="translate(80.404 3.956)" fill="#a93636"/>
    <path id="Trazado_382" data-name="Trazado 382" d="M177.73,40.5V50.76h-4.057V41.442c0-1.646-.559-2.44-1.97-2.44a6.474,6.474,0,0,0-3.762,1.528V50.76h-4.116v-14.7h3.792v1.558a8.828,8.828,0,0,1,5.291-1.941c3,0,4.821,1.676,4.821,4.821" transform="translate(66.336 3.957)" fill="#a93636"/>
    <path id="Trazado_383" data-name="Trazado 383" d="M207.952,24.945V45.933h-3.734V44.64a6.5,6.5,0,0,1-4.38,1.676c-3.469,0-6.32-2.881-6.32-7.5,0-4.909,3.116-7.966,7.084-7.966a6.462,6.462,0,0,1,3.381.911V24.945Zm-3.969,16.638V35.292a4.556,4.556,0,0,0-2.91-1.146c-2,0-3.469,1.558-3.469,4.615,0,2.469,1.058,4.262,3.175,4.262a4.5,4.5,0,0,0,3.2-1.44" transform="translate(52.986 8.784)" fill="#a93636"/>
    <path id="Trazado_384" data-name="Trazado 384" d="M224.786,43.412c.03-4.674,2.851-7.731,7.379-7.731,4.674,0,7.408,3,7.408,7.731,0,4.644-2.793,7.731-7.408,7.731-4.556,0-7.408-3.086-7.379-7.731m10.877,0c0-2.969-1.234-4.439-3.5-4.439-2.2,0-3.469,1.469-3.469,4.439s1.235,4.439,3.469,4.439c2.264,0,3.5-1.469,3.5-4.439" transform="translate(38.926 3.956)" fill="#a93636"/>
    <path id="Trazado_385" data-name="Trazado 385" d="M267.258,36.21l-.823,3.174a5.653,5.653,0,0,0-1.793-.323,5.805,5.805,0,0,0-3.88,1.646V50.761H256.7v-14.7h3.91v1.705a6.108,6.108,0,0,1,4.409-2.087,4.729,4.729,0,0,1,2.234.529" transform="translate(24.574 3.956)" fill="#a93636"/>
    <path id="Trazado_386" data-name="Trazado 386" d="M292.148,46.174a7.3,7.3,0,0,1-4.615,1.5c-3.2,0-5.026-2-5.026-5.379V35.415h-2.2V32.651h2.2V28.095h4v4.556h4.762v2.763H286.5V41.94a1.914,1.914,0,0,0,2.029,2.176,4.5,4.5,0,0,0,2.351-.794Z" transform="translate(13.964 7.367)" fill="#a93636"/>
    <path id="Trazado_387" data-name="Trazado 387" d="M316.8,36.209l-.823,3.174a5.654,5.654,0,0,0-1.793-.323,5.8,5.8,0,0,0-3.88,1.646V50.76h-4.057v-14.7h3.91v1.7a6.108,6.108,0,0,1,4.409-2.087,4.729,4.729,0,0,1,2.234.529" transform="translate(2.297 3.957)" fill="#a93636"/>
    <path id="Trazado_388" data-name="Trazado 388" d="M341.289,41.794V50.76h-3.528v-1.91A5.672,5.672,0,0,1,333,51.113c-3.027,0-5.056-1.793-5.056-4.556,0-3.616,3.439-4.851,7.172-4.851a17.213,17.213,0,0,1,2.5.177v-.206c0-1.911-1.293-2.822-3.116-2.822a7.377,7.377,0,0,0-4.468,1.676l-1.7-2.5a9.594,9.594,0,0,1,6.467-2.352c3.88,0,6.5,2.175,6.5,6.114m-3.675,2.44q-1.146-.088-2.2-.088c-1.91,0-3.5.558-3.5,2.146a1.852,1.852,0,0,0,2.058,1.852c2.175,0,3.5-1.646,3.645-3.91" transform="translate(-7.458 3.957)" fill="#a93636"/>
    <path id="Trazado_389" data-name="Trazado 389" d="M370.235,36.375l-5.144,13.4c-.412,1.117-1.058,1.469-2.557,1.47-1.528,0-2.175-.382-2.616-1.47l-5.174-13.4h4.145L362.563,47.6,366.3,36.375Z" transform="translate(-19.509 3.644)" fill="#a93636"/>
    <path id="Trazado_390" data-name="Trazado 390" d="M396.237,46.351l1.617,2.587a10.36,10.36,0,0,1-6.32,2.176c-4.586,0-7.378-3.2-7.378-7.5,0-4.233,2.763-7.937,7.672-7.937,3.263,0,6.173,1.793,6.173,5.115,0,2.234-1.293,4.2-4.615,4.2h-5.467c.382,1.793,1.616,2.91,3.88,2.91a7.9,7.9,0,0,0,4.439-1.558m-8.407-4.057h4.7c1.205,0,1.852-.676,1.852-1.617,0-1.058-1-1.969-2.587-1.969a4.013,4.013,0,0,0-3.969,3.586" transform="translate(-32.734 3.957)" fill="#a93636"/>
    <rect id="Rect치ngulo_177" data-name="Rect치ngulo 177" width="4.027" height="20.988" transform="translate(367.7 33.728)" fill="#a93636"/>
    <path id="Trazado_391" data-name="Trazado 391" d="M28.91,63.525a29.248,29.248,0,0,1-8.973-.655c-4.225-1.05-8.437-3.684-11.387-4.14a7.708,7.708,0,0,0-8.438,5.91c-.844,4.025,3.113,9.009,9.151,10.276,7.042,1.477,16.206-2.775,19.647-11.391" transform="translate(140 -6.377)" fill="#a93636"/>
    <path id="Trazado_392" data-name="Trazado 392" d="M61.86,16.348A18.709,18.709,0,0,0,57.975,12.1c-2.2-1.7-5.193-2.775-6.591-4.075a4.931,4.931,0,0,1-.378-6.578c1.686-2.019,5.756-2.008,8.785.521,3.532,2.95,5.03,9.235,2.069,14.377" transform="translate(117.55 20)" fill="#a93636"/>
    <path id="Trazado_393" data-name="Trazado 393" d="M28.3,18.284c-7.461-.455-12.417,3.768-12.808,10.188-.574,9.365,8.6,13.234,19.871,13.922q6.248.383,13.041.273c-.051-13.411-7.268-23.6-20.1-24.383M26.14,26.5c-1.562-.13-2.824-.705-2.716-2.029a1.536,1.536,0,0,1,1.812-1.409c1.784.147,2.751,1.614,2.717,3.517-.631-.006-1.233-.029-1.813-.08" transform="translate(133.046 11.794)" fill="#a93636"/>
    <rect id="Rect치ngulo_178" data-name="Rect치ngulo 178" width="231.728" height="48.827" transform="translate(140 20)" fill="none"/>
  </g>
</svg>
